<?xml version="1.0" encoding="UTF-8" standalone="no"?>
<!DOCTYPE svg PUBLIC "-//W3C//DTD SVG 1.1//EN"
 "http://www.w3.org/Graphics/SVG/1.1/DTD/svg11.dtd">
<!-- Generated by graphviz version 14.1.1 (20251213.1925)
 -->
<!-- Title: InheritanceTree Pages: 1 -->
<svg width="407pt" height="357pt"
 viewBox="0.00 0.00 407.00 357.00" xmlns="http://www.w3.org/2000/svg" xmlns:xlink="http://www.w3.org/1999/xlink">
<g id="graph0" class="graph" transform="scale(1 1) rotate(0) translate(4 352.5)">
<title>InheritanceTree</title>
<polygon fill="white" stroke="none" points="-4,4 -4,-352.5 402.75,-352.5 402.75,4 -4,4"/>
<text xml:space="preserve" text-anchor="middle" x="199.38" y="-7.2" font-family="Times New Roman,serif" font-size="14.00">simple_ucf &#45; Inheritance Hierarchy</text>
<!-- SIMPLE_UCF -->
<g id="node1" class="node">
<title>SIMPLE_UCF</title>
<path fill="none" stroke="black" d="M122.12,-60.5C122.12,-60.5 48.38,-60.5 48.38,-60.5 42.38,-60.5 36.38,-54.5 36.38,-48.5 36.38,-48.5 36.38,-36.5 36.38,-36.5 36.38,-30.5 42.38,-24.5 48.38,-24.5 48.38,-24.5 122.12,-24.5 122.12,-24.5 128.12,-24.5 134.12,-30.5 134.12,-36.5 134.12,-36.5 134.12,-48.5 134.12,-48.5 134.12,-54.5 128.12,-60.5 122.12,-60.5"/>
<text xml:space="preserve" text-anchor="middle" x="85.25" y="-37.45" font-family="Times New Roman,serif" font-size="14.00">SIMPLE_UCF</text>
</g>
<!-- UCF_HEATMAP_CONFIG -->
<g id="node2" class="node">
<title>UCF_HEATMAP_CONFIG</title>
<path fill="none" stroke="black" d="M158.5,-132.5C158.5,-132.5 12,-132.5 12,-132.5 6,-132.5 0,-126.5 0,-120.5 0,-120.5 0,-108.5 0,-108.5 0,-102.5 6,-96.5 12,-96.5 12,-96.5 158.5,-96.5 158.5,-96.5 164.5,-96.5 170.5,-102.5 170.5,-108.5 170.5,-108.5 170.5,-120.5 170.5,-120.5 170.5,-126.5 164.5,-132.5 158.5,-132.5"/>
<text xml:space="preserve" text-anchor="middle" x="85.25" y="-109.45" font-family="Times New Roman,serif" font-size="14.00">UCF_HEATMAP_CONFIG</text>
</g>
<!-- UCF_LIBRARY -->
<g id="node3" class="node">
<title>UCF_LIBRARY</title>
<path fill="none" stroke="black" d="M127,-204.5C127,-204.5 43.5,-204.5 43.5,-204.5 37.5,-204.5 31.5,-198.5 31.5,-192.5 31.5,-192.5 31.5,-180.5 31.5,-180.5 31.5,-174.5 37.5,-168.5 43.5,-168.5 43.5,-168.5 127,-168.5 127,-168.5 133,-168.5 139,-174.5 139,-180.5 139,-180.5 139,-192.5 139,-192.5 139,-198.5 133,-204.5 127,-204.5"/>
<text xml:space="preserve" text-anchor="middle" x="85.25" y="-181.45" font-family="Times New Roman,serif" font-size="14.00">UCF_LIBRARY</text>
</g>
<!-- LIB_TESTS -->
<g id="node4" class="node">
<title>LIB_TESTS</title>
<path fill="none" stroke="black" d="M115.38,-276.5C115.38,-276.5 55.12,-276.5 55.12,-276.5 49.12,-276.5 43.12,-270.5 43.12,-264.5 43.12,-264.5 43.12,-252.5 43.12,-252.5 43.12,-246.5 49.12,-240.5 55.12,-240.5 55.12,-240.5 115.38,-240.5 115.38,-240.5 121.38,-240.5 127.38,-246.5 127.38,-252.5 127.38,-252.5 127.38,-264.5 127.38,-264.5 127.38,-270.5 121.38,-276.5 115.38,-276.5"/>
<text xml:space="preserve" text-anchor="middle" x="85.25" y="-253.45" font-family="Times New Roman,serif" font-size="14.00">LIB_TESTS</text>
</g>
<!-- TEST_SET_BASE -->
<g id="node5" class="node">
<title>TEST_SET_BASE</title>
<path fill="none" stroke="black" d="M386.75,-276.5C386.75,-276.5 290.5,-276.5 290.5,-276.5 284.5,-276.5 278.5,-270.5 278.5,-264.5 278.5,-264.5 278.5,-252.5 278.5,-252.5 278.5,-246.5 284.5,-240.5 290.5,-240.5 290.5,-240.5 386.75,-240.5 386.75,-240.5 392.75,-240.5 398.75,-246.5 398.75,-252.5 398.75,-252.5 398.75,-264.5 398.75,-264.5 398.75,-270.5 392.75,-276.5 386.75,-276.5"/>
<text xml:space="preserve" text-anchor="middle" x="338.62" y="-253.45" font-family="Times New Roman,serif" font-size="14.00">TEST_SET_BASE</text>
</g>
<!-- LIB_TESTS&#45;&gt;TEST_SET_BASE -->
<g id="edge1" class="edge">
<title>LIB_TESTS&#45;&gt;TEST_SET_BASE</title>
<path fill="none" stroke="black" d="M127.66,-258.5C127.66,-258.5 266.52,-258.5 266.52,-258.5"/>
<polygon fill="none" stroke="black" points="266.52,-262 276.52,-258.5 266.52,-255 266.52,-262"/>
</g>
<!-- TEST_APP -->
<g id="node6" class="node">
<title>TEST_APP</title>
<path fill="none" stroke="black" d="M113.12,-348.5C113.12,-348.5 57.38,-348.5 57.38,-348.5 51.38,-348.5 45.38,-342.5 45.38,-336.5 45.38,-336.5 45.38,-324.5 45.38,-324.5 45.38,-318.5 51.38,-312.5 57.38,-312.5 57.38,-312.5 113.12,-312.5 113.12,-312.5 119.12,-312.5 125.12,-318.5 125.12,-324.5 125.12,-324.5 125.12,-336.5 125.12,-336.5 125.12,-342.5 119.12,-348.5 113.12,-348.5"/>
<text xml:space="preserve" text-anchor="middle" x="85.25" y="-325.45" font-family="Times New Roman,serif" font-size="14.00">TEST_APP</text>
</g>
</g>
</svg>
