<?xml version="1.0" encoding="UTF-8" standalone="no"?>
<!DOCTYPE svg PUBLIC "-//W3C//DTD SVG 1.1//EN"
 "http://www.w3.org/Graphics/SVG/1.1/DTD/svg11.dtd">
<!-- Generated by graphviz version 14.1.1 (20251213.1925)
 -->
<!-- Title: ContractCoverage Pages: 1 -->
<svg width="816pt" height="786pt"
 viewBox="48.00 48.00 768.00 738.00" xmlns="http://www.w3.org/2000/svg" xmlns:xlink="http://www.w3.org/1999/xlink">
<g id="graph0" class="graph" transform="scale(0.738935 0.738935) rotate(0) translate(68.96 994.21)">
<title>ContractCoverage</title>
<polygon fill="white" stroke="none" points="-4,4 -4,-929.25 970.38,-929.25 970.38,4 -4,4"/>
<text xml:space="preserve" text-anchor="middle" x="483.19" y="-911.75" font-family="Times New Roman,serif" font-size="10.00">simple_ucf &#45; Contract Coverage</text>
<g id="clust1" class="cluster">
<title>cluster_SIMPLE_UCF</title>
<polygon fill="white" stroke="black" points="34.37,-136 34.37,-616.5 538.38,-616.5 538.38,-136 34.37,-136"/>
<text xml:space="preserve" text-anchor="middle" x="286.38" y="-599.2" font-family="Times New Roman,serif" font-size="14.00">SIMPLE_UCF</text>
</g>
<g id="clust2" class="cluster">
<title>cluster_UCF_HEATMAP_CONFIG</title>
<polygon fill="white" stroke="black" points="612.37,-68 612.37,-422.5 966.38,-422.5 966.38,-68 612.37,-68"/>
<text xml:space="preserve" text-anchor="middle" x="789.38" y="-405.2" font-family="Times New Roman,serif" font-size="14.00">UCF_HEATMAP_CONFIG</text>
</g>
<g id="clust3" class="cluster">
<title>cluster_UCF_LIBRARY</title>
<polygon fill="white" stroke="black" points="612.37,-510 612.37,-834.5 948.38,-834.5 948.38,-510 612.37,-510"/>
<text xml:space="preserve" text-anchor="middle" x="780.38" y="-817.2" font-family="Times New Roman,serif" font-size="14.00">UCF_LIBRARY</text>
</g>
<g id="clust4" class="cluster">
<title>cluster_LIB_TESTS</title>
<polygon fill="white" stroke="black" points="305.75,0 305.75,-60.5 381,-60.5 381,0 305.75,0"/>
<text xml:space="preserve" text-anchor="middle" x="343.37" y="-43.2" font-family="Times New Roman,serif" font-size="14.00">LIB_TESTS</text>
</g>
<g id="clust5" class="cluster">
<title>cluster_TEST_APP</title>
<polygon fill="white" stroke="black" points="305.87,-680.5 305.87,-906 524.88,-906 524.88,-680.5 305.87,-680.5"/>
<text xml:space="preserve" text-anchor="middle" x="415.38" y="-888.7" font-family="Times New Roman,serif" font-size="14.00">TEST_APP</text>
</g>
<g id="clust6" class="cluster">
<title>cluster_legend</title>
<polygon fill="lightyellow" stroke="black" points="0,-680.13 0,-876.38 220.75,-876.38 220.75,-680.13 0,-680.13"/>
<text xml:space="preserve" text-anchor="middle" x="110.38" y="-862.88" font-family="Times New Roman,serif" font-size="10.00">Legend</text>
</g>
<!-- SIMPLE_UCF_make -->
<g id="node1" class="node">
<title>SIMPLE_UCF_make</title>
<polygon fill="lightcoral" stroke="black" points="538.38,-232 484.38,-232 484.38,-196 538.38,-196 538.38,-232"/>
<text xml:space="preserve" text-anchor="middle" x="511.38" y="-210.12" font-family="Times New Roman,serif" font-size="10.00">make</text>
</g>
<!-- SIMPLE_UCF_universe_name -->
<g id="node2" class="node">
<title>SIMPLE_UCF_universe_name</title>
<polygon fill="lightgray" stroke="black" points="489.12,-532 411.62,-532 411.62,-496 489.12,-496 489.12,-532"/>
<text xml:space="preserve" text-anchor="middle" x="450.37" y="-510.12" font-family="Times New Roman,serif" font-size="10.00">universe_name</text>
</g>
<!-- SIMPLE_UCF_universe_description -->
<g id="node3" class="node">
<title>SIMPLE_UCF_universe_description</title>
<polygon fill="lightgray" stroke="black" points="459.12,-352 357.62,-352 357.62,-316 459.12,-316 459.12,-352"/>
<text xml:space="preserve" text-anchor="middle" x="408.38" y="-330.12" font-family="Times New Roman,serif" font-size="10.00">universe_description</text>
</g>
<!-- SIMPLE_UCF_universe_root -->
<g id="node4" class="node">
<title>SIMPLE_UCF_universe_root</title>
<polygon fill="lightgray" stroke="black" points="328.5,-172 256.25,-172 256.25,-136 328.5,-136 328.5,-172"/>
<text xml:space="preserve" text-anchor="middle" x="292.37" y="-150.13" font-family="Times New Roman,serif" font-size="10.00">universe_root</text>
</g>
<!-- SIMPLE_UCF_libraries -->
<g id="node5" class="node">
<title>SIMPLE_UCF_libraries</title>
<polygon fill="lightgray" stroke="black" points="526.38,-592 472.38,-592 472.38,-556 526.38,-556 526.38,-592"/>
<text xml:space="preserve" text-anchor="middle" x="499.38" y="-570.13" font-family="Times New Roman,serif" font-size="10.00">libraries</text>
</g>
<!-- SIMPLE_UCF_stdlib_location -->
<g id="node6" class="node">
<title>SIMPLE_UCF_stdlib_location</title>
<polygon fill="lightgray" stroke="black" points="388.5,-532 310.25,-532 310.25,-496 388.5,-496 388.5,-532"/>
<text xml:space="preserve" text-anchor="middle" x="349.38" y="-510.12" font-family="Times New Roman,serif" font-size="10.00">stdlib_location</text>
</g>
<!-- SIMPLE_UCF_stdlib_includes -->
<g id="node7" class="node">
<title>SIMPLE_UCF_stdlib_includes</title>
<polygon fill="lightgray" stroke="black" points="142.87,-460 63.87,-460 63.87,-424 142.87,-424 142.87,-460"/>
<text xml:space="preserve" text-anchor="middle" x="103.37" y="-438.12" font-family="Times New Roman,serif" font-size="10.00">stdlib_includes</text>
</g>
<!-- SIMPLE_UCF_heatmap_config -->
<g id="node8" class="node">
<title>SIMPLE_UCF_heatmap_config</title>
<polygon fill="lightgray" stroke="black" points="506.37,-292 424.37,-292 424.37,-256 506.37,-256 506.37,-292"/>
<text xml:space="preserve" text-anchor="middle" x="465.37" y="-270.12" font-family="Times New Roman,serif" font-size="10.00">heatmap_config</text>
</g>
<!-- SIMPLE_UCF_is_valid -->
<g id="node9" class="node">
<title>SIMPLE_UCF_is_valid</title>
<polygon fill="lightgray" stroke="black" points="196.38,-580 142.38,-580 142.38,-544 196.38,-544 196.38,-580"/>
<text xml:space="preserve" text-anchor="middle" x="169.38" y="-558.12" font-family="Times New Roman,serif" font-size="10.00">is_valid</text>
</g>
<!-- SIMPLE_UCF_last_errors -->
<g id="node10" class="node">
<title>SIMPLE_UCF_last_errors</title>
<polygon fill="lightgray" stroke="black" points="500.38,-172 442.38,-172 442.38,-136 500.38,-136 500.38,-172"/>
<text xml:space="preserve" text-anchor="middle" x="471.38" y="-150.13" font-family="Times New Roman,serif" font-size="10.00">last_errors</text>
</g>
<!-- SIMPLE_UCF_load_file -->
<g id="node11" class="node">
<title>SIMPLE_UCF_load_file</title>
<polygon fill="khaki" stroke="black" points="292.37,-592 238.37,-592 238.37,-556 292.37,-556 292.37,-592"/>
<text xml:space="preserve" text-anchor="middle" x="265.37" y="-570.13" font-family="Times New Roman,serif" font-size="10.00">load_file</text>
</g>
<!-- SIMPLE_UCF_load_string -->
<g id="node12" class="node">
<title>SIMPLE_UCF_load_string</title>
<polygon fill="khaki" stroke="black" points="120.62,-340 58.12,-340 58.12,-304 120.62,-304 120.62,-340"/>
<text xml:space="preserve" text-anchor="middle" x="89.37" y="-318.12" font-family="Times New Roman,serif" font-size="10.00">load_string</text>
</g>
<!-- SIMPLE_UCF_discover_from_environment -->
<g id="node13" class="node">
<title>SIMPLE_UCF_discover_from_environment</title>
<polygon fill="lightgray" stroke="black" points="483.12,-472 351.62,-472 351.62,-436 483.12,-436 483.12,-472"/>
<text xml:space="preserve" text-anchor="middle" x="417.38" y="-450.13" font-family="Times New Roman,serif" font-size="10.00">discover_from_environment</text>
</g>
<!-- SIMPLE_UCF_l_exec -->
<g id="node14" class="node">
<title>SIMPLE_UCF_l_exec</title>
<polygon fill="khaki" stroke="black" points="184.37,-172 130.37,-172 130.37,-136 184.37,-136 184.37,-172"/>
<text xml:space="preserve" text-anchor="middle" x="157.37" y="-150.13" font-family="Times New Roman,serif" font-size="10.00">l_exec</text>
</g>
<!-- SIMPLE_UCF_discover_from_simple_eiffel_root -->
<g id="node15" class="node">
<title>SIMPLE_UCF_discover_from_simple_eiffel_root</title>
<polygon fill="lightgray" stroke="black" points="446.75,-412 292,-412 292,-376 446.75,-376 446.75,-412"/>
<text xml:space="preserve" text-anchor="middle" x="369.37" y="-390.12" font-family="Times New Roman,serif" font-size="10.00">discover_from_simple_eiffel_root</text>
</g>
<!-- SIMPLE_UCF_discover_from_legacy_env_vars -->
<g id="node16" class="node">
<title>SIMPLE_UCF_discover_from_legacy_env_vars</title>
<polygon fill="lightgray" stroke="black" points="404.75,-292 256,-292 256,-256 404.75,-256 404.75,-292"/>
<text xml:space="preserve" text-anchor="middle" x="330.37" y="-270.12" font-family="Times New Roman,serif" font-size="10.00">discover_from_legacy_env_vars</text>
</g>
<!-- SIMPLE_UCF_l_vars -->
<g id="node17" class="node">
<title>SIMPLE_UCF_l_vars</title>
<polygon fill="lightgray" stroke="black" points="106.37,-172 52.37,-172 52.37,-136 106.37,-136 106.37,-172"/>
<text xml:space="preserve" text-anchor="middle" x="79.37" y="-150.13" font-family="Times New Roman,serif" font-size="10.00">l_vars</text>
</g>
<!-- SIMPLE_UCF_l_lib -->
<g id="node18" class="node">
<title>SIMPLE_UCF_l_lib</title>
<polygon fill="lightcoral" stroke="black" points="118.37,-580 64.37,-580 64.37,-544 118.37,-544 118.37,-580"/>
<text xml:space="preserve" text-anchor="middle" x="91.37" y="-558.12" font-family="Times New Roman,serif" font-size="10.00">l_lib</text>
</g>
<!-- SIMPLE_UCF_library_by_name -->
<g id="node19" class="node">
<title>SIMPLE_UCF_library_by_name</title>
<polygon fill="khaki" stroke="black" points="197.25,-520 111.5,-520 111.5,-484 197.25,-484 197.25,-520"/>
<text xml:space="preserve" text-anchor="middle" x="154.37" y="-498.13" font-family="Times New Roman,serif" font-size="10.00">library_by_name</text>
</g>
<!-- SIMPLE_UCF_libraries_with_tag -->
<g id="node20" class="node">
<title>SIMPLE_UCF_libraries_with_tag</title>
<polygon fill="palegreen" stroke="black" points="232.88,-292 141.88,-292 141.88,-256 232.88,-256 232.88,-292"/>
<text xml:space="preserve" text-anchor="middle" x="187.38" y="-270.12" font-family="Times New Roman,serif" font-size="10.00">libraries_with_tag</text>
</g>
<!-- SIMPLE_UCF_all_source_paths -->
<g id="node21" class="node">
<title>SIMPLE_UCF_all_source_paths</title>
<polygon fill="khaki" stroke="black" points="196.87,-232 111.87,-232 111.87,-196 196.87,-196 196.87,-232"/>
<text xml:space="preserve" text-anchor="middle" x="154.37" y="-210.12" font-family="Times New Roman,serif" font-size="10.00">all_source_paths</text>
</g>
<!-- SIMPLE_UCF_generate_ucf -->
<g id="node22" class="node">
<title>SIMPLE_UCF_generate_ucf</title>
<polygon fill="khaki" stroke="black" points="288.62,-532 220.12,-532 220.12,-496 288.62,-496 288.62,-532"/>
<text xml:space="preserve" text-anchor="middle" x="254.37" y="-510.12" font-family="Times New Roman,serif" font-size="10.00">generate_ucf</text>
</g>
<!-- SIMPLE_UCF_parse_ucf -->
<g id="node23" class="node">
<title>SIMPLE_UCF_parse_ucf</title>
<polygon fill="khaki" stroke="black" points="520.88,-412 465.88,-412 465.88,-376 520.88,-376 520.88,-412"/>
<text xml:space="preserve" text-anchor="middle" x="493.38" y="-390.12" font-family="Times New Roman,serif" font-size="10.00">parse_ucf</text>
</g>
<!-- SIMPLE_UCF_parse_string_array -->
<g id="node24" class="node">
<title>SIMPLE_UCF_parse_string_array</title>
<polygon fill="khaki" stroke="black" points="346.87,-232 255.87,-232 255.87,-196 346.87,-196 346.87,-232"/>
<text xml:space="preserve" text-anchor="middle" x="301.37" y="-210.12" font-family="Times New Roman,serif" font-size="10.00">parse_string_array</text>
</g>
<!-- SIMPLE_UCF_parse_heatmap_config -->
<g id="node25" class="node">
<title>SIMPLE_UCF_parse_heatmap_config</title>
<polygon fill="khaki" stroke="black" points="328.5,-472 220.25,-472 220.25,-436 328.5,-436 328.5,-472"/>
<text xml:space="preserve" text-anchor="middle" x="274.37" y="-450.13" font-family="Times New Roman,serif" font-size="10.00">parse_heatmap_config</text>
</g>
<!-- SIMPLE_UCF_resolve_path -->
<g id="node26" class="node">
<title>SIMPLE_UCF_resolve_path</title>
<polygon fill="palegreen" stroke="black" points="420.62,-172 352.12,-172 352.12,-136 420.62,-136 420.62,-172"/>
<text xml:space="preserve" text-anchor="middle" x="386.38" y="-150.13" font-family="Times New Roman,serif" font-size="10.00">resolve_path</text>
</g>
<!-- SIMPLE_UCF_discover_from_simple_eiffel_root_impl -->
<g id="node27" class="node">
<title>SIMPLE_UCF_discover_from_simple_eiffel_root_impl</title>
<polygon fill="lightgray" stroke="black" points="338.75,-352 160,-352 160,-316 338.75,-316 338.75,-352"/>
<text xml:space="preserve" text-anchor="middle" x="249.37" y="-330.12" font-family="Times New Roman,serif" font-size="10.00">discover_from_simple_eiffel_root_impl</text>
</g>
<!-- SIMPLE_UCF_root_not_empty -->
<g id="node28" class="node">
<title>SIMPLE_UCF_root_not_empty</title>
<polygon fill="lightgray" stroke="black" points="140.37,-400 58.37,-400 58.37,-364 140.37,-364 140.37,-400"/>
<text xml:space="preserve" text-anchor="middle" x="99.37" y="-378.12" font-family="Times New Roman,serif" font-size="10.00">root_not_empty</text>
</g>
<!-- SIMPLE_UCF_a_root -->
<g id="node29" class="node">
<title>SIMPLE_UCF_a_root</title>
<polygon fill="lightgray" stroke="black" points="448.38,-592 394.38,-592 394.38,-556 448.38,-556 448.38,-592"/>
<text xml:space="preserve" text-anchor="middle" x="421.38" y="-570.13" font-family="Times New Roman,serif" font-size="10.00">a_root</text>
</g>
<!-- SIMPLE_UCF_is_empty -->
<g id="node30" class="node">
<title>SIMPLE_UCF_is_empty</title>
<polygon fill="lightcoral" stroke="black" points="370.37,-592 316.37,-592 316.37,-556 370.37,-556 370.37,-592"/>
<text xml:space="preserve" text-anchor="middle" x="343.37" y="-570.13" font-family="Times New Roman,serif" font-size="10.00">is_empty</text>
</g>
<!-- SIMPLE_UCF_get_simple_env_vars -->
<g id="node31" class="node">
<title>SIMPLE_UCF_get_simple_env_vars</title>
<polygon fill="lightgray" stroke="black" points="268.87,-412 165.87,-412 165.87,-376 268.87,-376 268.87,-412"/>
<text xml:space="preserve" text-anchor="middle" x="217.37" y="-390.12" font-family="Times New Roman,serif" font-size="10.00">get_simple_env_vars</text>
</g>
<!-- SIMPLE_UCF_l_env -->
<g id="node32" class="node">
<title>SIMPLE_UCF_l_env</title>
<polygon fill="lightgray" stroke="black" points="88.37,-520 34.37,-520 34.37,-484 88.37,-484 88.37,-520"/>
<text xml:space="preserve" text-anchor="middle" x="61.37" y="-498.13" font-family="Times New Roman,serif" font-size="10.00">l_env</text>
</g>
<!-- SIMPLE_UCF_reset -->
<g id="node33" class="node">
<title>SIMPLE_UCF_reset</title>
<polygon fill="lightcoral" stroke="black" points="88.37,-280 34.37,-280 34.37,-244 88.37,-244 88.37,-280"/>
<text xml:space="preserve" text-anchor="middle" x="61.37" y="-258.12" font-family="Times New Roman,serif" font-size="10.00">reset</text>
</g>
<!-- SIMPLE_UCF_current_timestamp -->
<g id="node34" class="node">
<title>SIMPLE_UCF_current_timestamp</title>
<polygon fill="lightcoral" stroke="black" points="461.25,-232 369.5,-232 369.5,-196 461.25,-196 461.25,-232"/>
<text xml:space="preserve" text-anchor="middle" x="415.37" y="-210.12" font-family="Times New Roman,serif" font-size="10.00">current_timestamp</text>
</g>
<!-- SIMPLE_UCF_toml -->
<g id="node35" class="node">
<title>SIMPLE_UCF_toml</title>
<polygon fill="lightgray" stroke="black" points="538.38,-352 484.38,-352 484.38,-316 538.38,-316 538.38,-352"/>
<text xml:space="preserve" text-anchor="middle" x="511.38" y="-330.12" font-family="Times New Roman,serif" font-size="10.00">toml</text>
</g>
<!-- UCF_HEATMAP_CONFIG_make -->
<g id="node36" class="node">
<title>UCF_HEATMAP_CONFIG_make</title>
<polygon fill="lightcoral" stroke="black" points="666.37,-398 612.37,-398 612.37,-362 666.37,-362 666.37,-398"/>
<text xml:space="preserve" text-anchor="middle" x="639.37" y="-376.12" font-family="Times New Roman,serif" font-size="10.00">make</text>
</g>
<!-- UCF_HEATMAP_CONFIG_is_enabled -->
<g id="node37" class="node">
<title>UCF_HEATMAP_CONFIG_is_enabled</title>
<polygon fill="lightgray" stroke="black" points="918.5,-116 858.25,-116 858.25,-80 918.5,-80 918.5,-116"/>
<text xml:space="preserve" text-anchor="middle" x="888.37" y="-94.12" font-family="Times New Roman,serif" font-size="10.00">is_enabled</text>
</g>
<!-- UCF_HEATMAP_CONFIG_metrics -->
<g id="node38" class="node">
<title>UCF_HEATMAP_CONFIG_metrics</title>
<polygon fill="lightgray" stroke="black" points="684.37,-254 630.37,-254 630.37,-218 684.37,-218 684.37,-254"/>
<text xml:space="preserve" text-anchor="middle" x="657.37" y="-232.12" font-family="Times New Roman,serif" font-size="10.00">metrics</text>
</g>
<!-- UCF_HEATMAP_CONFIG_colors -->
<g id="node39" class="node">
<title>UCF_HEATMAP_CONFIG_colors</title>
<polygon fill="lightgray" stroke="black" points="672.38,-104 618.38,-104 618.38,-68 672.38,-68 672.38,-104"/>
<text xml:space="preserve" text-anchor="middle" x="645.38" y="-82.12" font-family="Times New Roman,serif" font-size="10.00">colors</text>
</g>
<!-- UCF_HEATMAP_CONFIG_thresholds -->
<g id="node40" class="node">
<title>UCF_HEATMAP_CONFIG_thresholds</title>
<polygon fill="lightgray" stroke="black" points="754.37,-104 696.37,-104 696.37,-68 754.37,-68 754.37,-104"/>
<text xml:space="preserve" text-anchor="middle" x="725.37" y="-82.12" font-family="Times New Roman,serif" font-size="10.00">thresholds</text>
</g>
<!-- UCF_HEATMAP_CONFIG_low_threshold -->
<g id="node41" class="node">
<title>UCF_HEATMAP_CONFIG_low_threshold</title>
<polygon fill="lightcoral" stroke="black" points="909,-176 833.75,-176 833.75,-140 909,-140 909,-176"/>
<text xml:space="preserve" text-anchor="middle" x="871.37" y="-154.12" font-family="Times New Roman,serif" font-size="10.00">low_threshold</text>
</g>
<!-- UCF_HEATMAP_CONFIG_medium_threshold -->
<g id="node42" class="node">
<title>UCF_HEATMAP_CONFIG_medium_threshold</title>
<polygon fill="lightcoral" stroke="black" points="890.62,-284 798.12,-284 798.12,-248 890.62,-248 890.62,-284"/>
<text xml:space="preserve" text-anchor="middle" x="844.38" y="-262.12" font-family="Times New Roman,serif" font-size="10.00">medium_threshold</text>
</g>
<!-- UCF_HEATMAP_CONFIG_high_threshold -->
<g id="node43" class="node">
<title>UCF_HEATMAP_CONFIG_high_threshold</title>
<polygon fill="lightcoral" stroke="black" points="774.5,-314 696.25,-314 696.25,-278 774.5,-278 774.5,-314"/>
<text xml:space="preserve" text-anchor="middle" x="735.38" y="-292.12" font-family="Times New Roman,serif" font-size="10.00">high_threshold</text>
</g>
<!-- UCF_HEATMAP_CONFIG_color_for_percentage -->
<g id="node44" class="node">
<title>UCF_HEATMAP_CONFIG_color_for_percentage</title>
<polygon fill="lightcoral" stroke="black" points="810.87,-224 707.87,-224 707.87,-188 810.87,-188 810.87,-224"/>
<text xml:space="preserve" text-anchor="middle" x="759.37" y="-202.12" font-family="Times New Roman,serif" font-size="10.00">color_for_percentage</text>
</g>
<!-- UCF_HEATMAP_CONFIG_color_none -->
<g id="node45" class="node">
<title>UCF_HEATMAP_CONFIG_color_none</title>
<polygon fill="lightcoral" stroke="black" points="836.62,-116 774.12,-116 774.12,-80 836.62,-80 836.62,-116"/>
<text xml:space="preserve" text-anchor="middle" x="805.37" y="-94.12" font-family="Times New Roman,serif" font-size="10.00">color_none</text>
</g>
<!-- UCF_HEATMAP_CONFIG_color_low -->
<g id="node46" class="node">
<title>UCF_HEATMAP_CONFIG_color_low</title>
<polygon fill="lightcoral" stroke="black" points="676.37,-314 618.37,-314 618.37,-278 676.37,-278 676.37,-314"/>
<text xml:space="preserve" text-anchor="middle" x="647.37" y="-292.12" font-family="Times New Roman,serif" font-size="10.00">color_low</text>
</g>
<!-- UCF_HEATMAP_CONFIG_color_medium -->
<g id="node47" class="node">
<title>UCF_HEATMAP_CONFIG_color_medium</title>
<polygon fill="lightcoral" stroke="black" points="753,-164 677.75,-164 677.75,-128 753,-128 753,-164"/>
<text xml:space="preserve" text-anchor="middle" x="715.37" y="-142.12" font-family="Times New Roman,serif" font-size="10.00">color_medium</text>
</g>
<!-- UCF_HEATMAP_CONFIG_color_high -->
<g id="node48" class="node">
<title>UCF_HEATMAP_CONFIG_color_high</title>
<polygon fill="lightcoral" stroke="black" points="750.87,-374 689.87,-374 689.87,-338 750.87,-338 750.87,-374"/>
<text xml:space="preserve" text-anchor="middle" x="720.37" y="-352.12" font-family="Times New Roman,serif" font-size="10.00">color_high</text>
</g>
<!-- UCF_HEATMAP_CONFIG_set_enabled -->
<g id="node49" class="node">
<title>UCF_HEATMAP_CONFIG_set_enabled</title>
<polygon fill="khaki" stroke="black" points="838.75,-374 774,-374 774,-338 838.75,-338 838.75,-374"/>
<text xml:space="preserve" text-anchor="middle" x="806.37" y="-352.12" font-family="Times New Roman,serif" font-size="10.00">set_enabled</text>
</g>
<!-- UCF_HEATMAP_CONFIG_reset -->
<g id="node50" class="node">
<title>UCF_HEATMAP_CONFIG_reset</title>
<polygon fill="lightcoral" stroke="black" points="966.37,-236 912.37,-236 912.37,-200 966.37,-200 966.37,-236"/>
<text xml:space="preserve" text-anchor="middle" x="939.37" y="-214.12" font-family="Times New Roman,serif" font-size="10.00">reset</text>
</g>
<!-- UCF_HEATMAP_CONFIG_set_defaults -->
<g id="node51" class="node">
<title>UCF_HEATMAP_CONFIG_set_defaults</title>
<polygon fill="lightcoral" stroke="black" points="922.75,-344 858,-344 858,-308 922.75,-308 922.75,-344"/>
<text xml:space="preserve" text-anchor="middle" x="890.37" y="-322.12" font-family="Times New Roman,serif" font-size="10.00">set_defaults</text>
</g>
<!-- UCF_LIBRARY_make -->
<g id="node52" class="node">
<title>UCF_LIBRARY_make</title>
<polygon fill="lightcoral" stroke="black" points="948.37,-666 894.37,-666 894.37,-630 948.37,-630 948.37,-666"/>
<text xml:space="preserve" text-anchor="middle" x="921.37" y="-644.12" font-family="Times New Roman,serif" font-size="10.00">make</text>
</g>
<!-- UCF_LIBRARY_name -->
<g id="node53" class="node">
<title>UCF_LIBRARY_name</title>
<polygon fill="lightgray" stroke="black" points="678.37,-672 624.37,-672 624.37,-636 678.37,-636 678.37,-672"/>
<text xml:space="preserve" text-anchor="middle" x="651.37" y="-650.12" font-family="Times New Roman,serif" font-size="10.00">name</text>
</g>
<!-- UCF_LIBRARY_location -->
<g id="node54" class="node">
<title>UCF_LIBRARY_location</title>
<polygon fill="lightgray" stroke="black" points="810.37,-546 756.37,-546 756.37,-510 810.37,-510 810.37,-546"/>
<text xml:space="preserve" text-anchor="middle" x="783.37" y="-524.12" font-family="Times New Roman,serif" font-size="10.00">location</text>
</g>
<!-- UCF_LIBRARY_resolved_path -->
<g id="node55" class="node">
<title>UCF_LIBRARY_resolved_path</title>
<polygon fill="lightgray" stroke="black" points="763.25,-732 689.5,-732 689.5,-696 763.25,-696 763.25,-732"/>
<text xml:space="preserve" text-anchor="middle" x="726.38" y="-710.12" font-family="Times New Roman,serif" font-size="10.00">resolved_path</text>
</g>
<!-- UCF_LIBRARY_ecf -->
<g id="node56" class="node">
<title>UCF_LIBRARY_ecf</title>
<polygon fill="lightgray" stroke="black" points="744.38,-792 690.38,-792 690.38,-756 744.38,-756 744.38,-792"/>
<text xml:space="preserve" text-anchor="middle" x="717.38" y="-770.12" font-family="Times New Roman,serif" font-size="10.00">ecf</text>
</g>
<!-- UCF_LIBRARY_tags -->
<g id="node57" class="node">
<title>UCF_LIBRARY_tags</title>
<polygon fill="lightgray" stroke="black" points="900.37,-768 846.37,-768 846.37,-732 900.37,-732 900.37,-768"/>
<text xml:space="preserve" text-anchor="middle" x="873.37" y="-746.12" font-family="Times New Roman,serif" font-size="10.00">tags</text>
</g>
<!-- UCF_LIBRARY_set_name -->
<g id="node58" class="node">
<title>UCF_LIBRARY_set_name</title>
<polygon fill="palegreen" stroke="black" points="822.5,-792 768.25,-792 768.25,-756 822.5,-756 822.5,-792"/>
<text xml:space="preserve" text-anchor="middle" x="795.37" y="-770.12" font-family="Times New Roman,serif" font-size="10.00">set_name</text>
</g>
<!-- UCF_LIBRARY_set_location -->
<g id="node59" class="node">
<title>UCF_LIBRARY_set_location</title>
<polygon fill="palegreen" stroke="black" points="732.5,-588 666.25,-588 666.25,-552 732.5,-552 732.5,-588"/>
<text xml:space="preserve" text-anchor="middle" x="699.38" y="-566.12" font-family="Times New Roman,serif" font-size="10.00">set_location</text>
</g>
<!-- UCF_LIBRARY_set_resolved_path -->
<g id="node60" class="node">
<title>UCF_LIBRARY_set_resolved_path</title>
<polygon fill="palegreen" stroke="black" points="792.5,-648 702.25,-648 702.25,-612 792.5,-612 792.5,-648"/>
<text xml:space="preserve" text-anchor="middle" x="747.37" y="-626.12" font-family="Times New Roman,serif" font-size="10.00">set_resolved_path</text>
</g>
<!-- UCF_LIBRARY_set_ecf -->
<g id="node61" class="node">
<title>UCF_LIBRARY_set_ecf</title>
<polygon fill="palegreen" stroke="black" points="888.38,-546 834.38,-546 834.38,-510 888.38,-510 888.38,-546"/>
<text xml:space="preserve" text-anchor="middle" x="861.38" y="-524.12" font-family="Times New Roman,serif" font-size="10.00">set_ecf</text>
</g>
<!-- UCF_LIBRARY_full_ecf_path -->
<g id="node62" class="node">
<title>UCF_LIBRARY_full_ecf_path</title>
<polygon fill="khaki" stroke="black" points="886.75,-606 816,-606 816,-570 886.75,-570 886.75,-606"/>
<text xml:space="preserve" text-anchor="middle" x="851.37" y="-584.12" font-family="Times New Roman,serif" font-size="10.00">full_ecf_path</text>
</g>
<!-- UCF_LIBRARY_has_tag -->
<g id="node63" class="node">
<title>UCF_LIBRARY_has_tag</title>
<polygon fill="khaki" stroke="black" points="666.37,-810 612.37,-810 612.37,-774 666.37,-774 666.37,-810"/>
<text xml:space="preserve" text-anchor="middle" x="639.37" y="-788.12" font-family="Times New Roman,serif" font-size="10.00">has_tag</text>
</g>
<!-- UCF_LIBRARY_is_stdlib -->
<g id="node64" class="node">
<title>UCF_LIBRARY_is_stdlib</title>
<polygon fill="lightcoral" stroke="black" points="666.37,-750 612.37,-750 612.37,-714 666.37,-714 666.37,-750"/>
<text xml:space="preserve" text-anchor="middle" x="639.37" y="-728.12" font-family="Times New Roman,serif" font-size="10.00">is_stdlib</text>
</g>
<!-- UCF_LIBRARY_is_simple_library -->
<g id="node65" class="node">
<title>UCF_LIBRARY_is_simple_library</title>
<polygon fill="lightcoral" stroke="black" points="873,-708 785.75,-708 785.75,-672 873,-672 873,-708"/>
<text xml:space="preserve" text-anchor="middle" x="829.38" y="-686.12" font-family="Times New Roman,serif" font-size="10.00">is_simple_library</text>
</g>
<!-- LIB_TESTS_test_ucf_make -->
<g id="node66" class="node">
<title>LIB_TESTS_test_ucf_make</title>
<polygon fill="lightgray" stroke="black" points="381,-36 305.75,-36 305.75,0 381,0 381,-36"/>
<text xml:space="preserve" text-anchor="middle" x="343.37" y="-14.12" font-family="Times New Roman,serif" font-size="10.00">test_ucf_make</text>
</g>
<!-- TEST_APP_make -->
<g id="node67" class="node">
<title>TEST_APP_make</title>
<polygon fill="lightcoral" stroke="black" points="524.88,-881.5 470.88,-881.5 470.88,-845.5 524.88,-845.5 524.88,-881.5"/>
<text xml:space="preserve" text-anchor="middle" x="497.88" y="-859.62" font-family="Times New Roman,serif" font-size="10.00">make</text>
</g>
<!-- TEST_APP_run_lib_tests -->
<g id="node68" class="node">
<title>TEST_APP_run_lib_tests</title>
<polygon fill="lightcoral" stroke="black" points="409.5,-771.5 340.25,-771.5 340.25,-735.5 409.5,-735.5 409.5,-771.5"/>
<text xml:space="preserve" text-anchor="middle" x="374.87" y="-749.62" font-family="Times New Roman,serif" font-size="10.00">run_lib_tests</text>
</g>
<!-- TEST_APP_lib_tests -->
<g id="node69" class="node">
<title>TEST_APP_lib_tests</title>
<polygon fill="lightgray" stroke="black" points="469.87,-826.5 415.87,-826.5 415.87,-790.5 469.87,-790.5 469.87,-826.5"/>
<text xml:space="preserve" text-anchor="middle" x="442.87" y="-804.63" font-family="Times New Roman,serif" font-size="10.00">lib_tests</text>
</g>
<!-- TEST_APP_passed -->
<g id="node70" class="node">
<title>TEST_APP_passed</title>
<polygon fill="lightgray" stroke="black" points="394.88,-831.5 340.88,-831.5 340.88,-795.5 394.88,-795.5 394.88,-831.5"/>
<text xml:space="preserve" text-anchor="middle" x="367.88" y="-809.62" font-family="Times New Roman,serif" font-size="10.00">passed</text>
</g>
<!-- TEST_APP_failed -->
<g id="node71" class="node">
<title>TEST_APP_failed</title>
<polygon fill="lightgray" stroke="black" points="484.88,-741.5 430.88,-741.5 430.88,-705.5 484.88,-705.5 484.88,-741.5"/>
<text xml:space="preserve" text-anchor="middle" x="457.88" y="-719.62" font-family="Times New Roman,serif" font-size="10.00">failed</text>
</g>
<!-- TEST_APP_run_test -->
<g id="node72" class="node">
<title>TEST_APP_run_test</title>
<polygon fill="lightcoral" stroke="black" points="359.87,-716.5 305.87,-716.5 305.87,-680.5 359.87,-680.5 359.87,-716.5"/>
<text xml:space="preserve" text-anchor="middle" x="332.87" y="-694.62" font-family="Times New Roman,serif" font-size="10.00">run_test</text>
</g>
<!-- legend_full -->
<g id="node73" class="node">
<title>legend_full</title>
<polygon fill="palegreen" stroke="black" points="210.25,-785.13 96,-785.13 96,-744.13 210.25,-744.13 210.25,-785.13"/>
<text xml:space="preserve" text-anchor="middle" x="153.12" y="-767.83" font-family="Times New Roman,serif" font-size="14.00">Full Contract</text>
<text xml:space="preserve" text-anchor="middle" x="153.12" y="-751.33" font-family="Times New Roman,serif" font-size="14.00">(require + ensure)</text>
</g>
<!-- legend_partial -->
<g id="node74" class="node">
<title>legend_partial</title>
<polygon fill="khaki" stroke="black" points="220.75,-721.12 103.5,-721.12 103.5,-680.12 220.75,-680.12 220.75,-721.12"/>
<text xml:space="preserve" text-anchor="middle" x="162.12" y="-703.83" font-family="Times New Roman,serif" font-size="14.00">Partial Contract</text>
<text xml:space="preserve" text-anchor="middle" x="162.12" y="-687.33" font-family="Times New Roman,serif" font-size="14.00">(require or ensure)</text>
</g>
<!-- legend_none -->
<g id="node75" class="node">
<title>legend_none</title>
<polygon fill="lightcoral" stroke="black" points="186.5,-843.63 103.75,-843.63 103.75,-807.63 186.5,-807.63 186.5,-843.63"/>
<text xml:space="preserve" text-anchor="middle" x="145.13" y="-820.58" font-family="Times New Roman,serif" font-size="14.00">No Contract</text>
</g>
<!-- legend_attr -->
<g id="node76" class="node">
<title>legend_attr</title>
<polygon fill="lightgray" stroke="black" points="80.5,-857.13 15.75,-857.13 15.75,-816.13 80.5,-816.13 80.5,-857.13"/>
<text xml:space="preserve" text-anchor="middle" x="48.13" y="-839.83" font-family="Times New Roman,serif" font-size="14.00">Attribute</text>
<text xml:space="preserve" text-anchor="middle" x="48.13" y="-823.33" font-family="Times New Roman,serif" font-size="14.00">(n/a)</text>
</g>
<!-- legend_stats -->
<g id="node77" class="node">
<title>legend_stats</title>
<polygon fill="white" stroke="black" points="66.25,-795.13 0,-795.13 0,-688.13 72.25,-688.13 72.25,-789.13 66.25,-795.13"/>
<polyline fill="none" stroke="black" points="66.25,-795.13 66.25,-789.13"/>
<polyline fill="none" stroke="black" points="72.25,-789.13 66.25,-789.13"/>
<text xml:space="preserve" text-anchor="middle" x="36.12" y="-777.83" font-family="Times New Roman,serif" font-size="14.00">Statistics</text>
<text xml:space="preserve" text-anchor="middle" x="36.12" y="-761.33" font-family="Times New Roman,serif" font-size="14.00">Full: 6</text>
<text xml:space="preserve" text-anchor="middle" x="36.12" y="-744.83" font-family="Times New Roman,serif" font-size="14.00">Partial: 12</text>
<text xml:space="preserve" text-anchor="middle" x="36.12" y="-728.33" font-family="Times New Roman,serif" font-size="14.00">None: 24</text>
<text xml:space="preserve" text-anchor="middle" x="36.12" y="-711.83" font-family="Times New Roman,serif" font-size="14.00">Attr: 33</text>
<text xml:space="preserve" text-anchor="middle" x="36.12" y="-695.33" font-family="Times New Roman,serif" font-size="14.00">Total: 75</text>
</g>
</g>
</svg>
