<?xml version="1.0" encoding="UTF-8" standalone="no"?>
<!DOCTYPE svg PUBLIC "-//W3C//DTD SVG 1.1//EN"
 "http://www.w3.org/Graphics/SVG/1.1/DTD/svg11.dtd">
<!-- Generated by graphviz version 14.1.1 (20251213.1925)
 -->
<!-- Title: Dependencies Pages: 1 -->
<svg width="336pt" height="573pt"
 viewBox="0.00 0.00 336.00 573.00" xmlns="http://www.w3.org/2000/svg" xmlns:xlink="http://www.w3.org/1999/xlink">
<g id="graph0" class="graph" transform="scale(1 1) rotate(0) translate(4 568.5)">
<title>Dependencies</title>
<polygon fill="white" stroke="none" points="-4,4 -4,-568.5 331.5,-568.5 331.5,4 -4,4"/>
<text xml:space="preserve" text-anchor="middle" x="163.75" y="-7.2" font-family="Times New Roman,serif" font-size="14.00">simple_ucf &#45; Dependencies</text>
<!-- simple_ucf -->
<g id="node1" class="node">
<title>simple_ucf</title>
<polygon fill="lightblue" stroke="black" points="76.75,-312.5 0,-312.5 0,-276.5 76.75,-276.5 76.75,-312.5"/>
<text xml:space="preserve" text-anchor="middle" x="38.38" y="-289.45" font-family="Times New Roman,serif" font-size="14.00">simple_ucf</text>
</g>
<!-- simple_env -->
<g id="node2" class="node">
<title>simple_env</title>
<polygon fill="lightblue" stroke="black" points="313.62,-564.5 234.62,-564.5 234.62,-528.5 313.62,-528.5 313.62,-564.5"/>
<text xml:space="preserve" text-anchor="middle" x="274.12" y="-541.45" font-family="Times New Roman,serif" font-size="14.00">simple_env</text>
</g>
<!-- simple_ucf&#45;&gt;simple_env -->
<g id="edge1" class="edge">
<title>simple_ucf&#45;&gt;simple_env</title>
<path fill="none" stroke="black" stroke-dasharray="5,2" d="M15.5,-312.62C15.5,-370.4 15.5,-546.5 15.5,-546.5 15.5,-546.5 222.77,-546.5 222.77,-546.5"/>
<polygon fill="black" stroke="black" points="222.77,-550 232.77,-546.5 222.77,-543 222.77,-550"/>
</g>
<!-- simple_file -->
<g id="node3" class="node">
<title>simple_file</title>
<polygon fill="lightblue" stroke="black" points="312.88,-492.5 235.38,-492.5 235.38,-456.5 312.88,-456.5 312.88,-492.5"/>
<text xml:space="preserve" text-anchor="middle" x="274.12" y="-469.45" font-family="Times New Roman,serif" font-size="14.00">simple_file</text>
</g>
<!-- simple_ucf&#45;&gt;simple_file -->
<g id="edge2" class="edge">
<title>simple_ucf&#45;&gt;simple_file</title>
<path fill="none" stroke="black" stroke-dasharray="5,2" d="M30.5,-312.75C30.5,-358.51 30.5,-474.5 30.5,-474.5 30.5,-474.5 223.47,-474.5 223.47,-474.5"/>
<polygon fill="black" stroke="black" points="223.47,-478 233.47,-474.5 223.47,-471 223.47,-478"/>
</g>
<!-- simple_toml -->
<g id="node4" class="node">
<title>simple_toml</title>
<polygon fill="lightblue" stroke="black" points="316.62,-420.5 231.62,-420.5 231.62,-384.5 316.62,-384.5 316.62,-420.5"/>
<text xml:space="preserve" text-anchor="middle" x="274.12" y="-397.45" font-family="Times New Roman,serif" font-size="14.00">simple_toml</text>
</g>
<!-- simple_ucf&#45;&gt;simple_toml -->
<g id="edge3" class="edge">
<title>simple_ucf&#45;&gt;simple_toml</title>
<path fill="none" stroke="black" stroke-dasharray="5,2" d="M46.5,-312.82C46.5,-343.63 46.5,-402.5 46.5,-402.5 46.5,-402.5 219.8,-402.5 219.8,-402.5"/>
<polygon fill="black" stroke="black" points="219.8,-406 229.8,-402.5 219.8,-399 219.8,-406"/>
</g>
<!-- simple_xml -->
<g id="node5" class="node">
<title>simple_xml</title>
<polygon fill="lightblue" stroke="black" points="314.75,-348.5 233.5,-348.5 233.5,-312.5 314.75,-312.5 314.75,-348.5"/>
<text xml:space="preserve" text-anchor="middle" x="274.12" y="-325.45" font-family="Times New Roman,serif" font-size="14.00">simple_xml</text>
</g>
<!-- simple_ucf&#45;&gt;simple_xml -->
<g id="edge4" class="edge">
<title>simple_ucf&#45;&gt;simple_xml</title>
<path fill="none" stroke="black" stroke-dasharray="5,2" d="M61.5,-312.92C61.5,-321.78 61.5,-330.5 61.5,-330.5 61.5,-330.5 221.62,-330.5 221.62,-330.5"/>
<polygon fill="black" stroke="black" points="221.62,-334 231.62,-330.5 221.62,-327 221.62,-334"/>
</g>
<!-- simple_datetime -->
<g id="node6" class="node">
<title>simple_datetime</title>
<polygon fill="lightblue" stroke="black" points="327.5,-276.5 220.75,-276.5 220.75,-240.5 327.5,-240.5 327.5,-276.5"/>
<text xml:space="preserve" text-anchor="middle" x="274.12" y="-253.45" font-family="Times New Roman,serif" font-size="14.00">simple_datetime</text>
</g>
<!-- simple_ucf&#45;&gt;simple_datetime -->
<g id="edge5" class="edge">
<title>simple_ucf&#45;&gt;simple_datetime</title>
<path fill="none" stroke="black" stroke-dasharray="5,2" d="M76.9,-294.5C131.94,-294.5 226.5,-294.5 226.5,-294.5 226.5,-294.5 226.5,-288.44 226.5,-288.44"/>
<polygon fill="black" stroke="black" points="230,-288.44 226.5,-278.44 223,-288.44 230,-288.44"/>
</g>
<!-- simple_testing -->
<g id="node7" class="node">
<title>simple_testing</title>
<polygon fill="lightblue" stroke="black" points="321.88,-204.5 226.38,-204.5 226.38,-168.5 321.88,-168.5 321.88,-204.5"/>
<text xml:space="preserve" text-anchor="middle" x="274.12" y="-181.45" font-family="Times New Roman,serif" font-size="14.00">simple_testing</text>
</g>
<!-- simple_ucf&#45;&gt;simple_testing -->
<g id="edge6" class="edge">
<title>simple_ucf&#45;&gt;simple_testing</title>
<path fill="none" stroke="black" stroke-dasharray="5,2" d="M57.5,-276.18C57.5,-245.37 57.5,-186.5 57.5,-186.5 57.5,-186.5 214.54,-186.5 214.54,-186.5"/>
<polygon fill="black" stroke="black" points="214.54,-190 224.54,-186.5 214.54,-183 214.54,-190"/>
</g>
<!-- base -->
<g id="node8" class="node">
<title>base</title>
<polygon fill="lightgray" stroke="black" points="301.12,-132.5 247.12,-132.5 247.12,-96.5 301.12,-96.5 301.12,-132.5"/>
<text xml:space="preserve" text-anchor="middle" x="274.12" y="-109.45" font-family="Times New Roman,serif" font-size="14.00">base</text>
</g>
<!-- simple_ucf&#45;&gt;base -->
<g id="edge7" class="edge">
<title>simple_ucf&#45;&gt;base</title>
<path fill="none" stroke="black" stroke-dasharray="5,2" d="M38.5,-276.25C38.5,-230.49 38.5,-114.5 38.5,-114.5 38.5,-114.5 235.12,-114.5 235.12,-114.5"/>
<polygon fill="black" stroke="black" points="235.12,-118 245.12,-114.5 235.12,-111 235.12,-118"/>
</g>
<!-- testing -->
<g id="node9" class="node">
<title>testing</title>
<polygon fill="lightgray" stroke="black" points="301.12,-60.5 247.12,-60.5 247.12,-24.5 301.12,-24.5 301.12,-60.5"/>
<text xml:space="preserve" text-anchor="middle" x="274.12" y="-37.45" font-family="Times New Roman,serif" font-size="14.00">testing</text>
</g>
<!-- simple_ucf&#45;&gt;testing -->
<g id="edge8" class="edge">
<title>simple_ucf&#45;&gt;testing</title>
<path fill="none" stroke="black" stroke-dasharray="5,2" d="M19.5,-276.38C19.5,-218.6 19.5,-42.5 19.5,-42.5 19.5,-42.5 235.36,-42.5 235.36,-42.5"/>
<polygon fill="black" stroke="black" points="235.36,-46 245.36,-42.5 235.36,-39 235.36,-46"/>
</g>
</g>
</svg>
